<!--?xml version="1.0" standalone="no"?-->
              <svg id="sw-js-blob-svg" viewBox="0 0 100 100" xmlns="http://www.w3.org/2000/svg" version="1.1">
                    <defs> 
                        <linearGradient id="sw-gradient" x1="0" x2="1" y1="1" y2="0">
                            <stop id="stop1" stop-color="rgba(117, 230, 218, 1)" offset="0%"></stop>
                            <stop id="stop2" stop-color="rgba(5, 68, 94, 1)" offset="100%"></stop>
                        </linearGradient>
                    </defs>
                <path fill="url(#sw-gradient)" d="M25.8,-31C33.4,-24.4,39.6,-16.2,40.7,-7.5C41.9,1.2,38,10.5,33.2,19.6C28.4,28.7,22.7,37.7,15.2,39.2C7.8,40.8,-1.4,34.9,-9.2,30C-17,25.2,-23.5,21.2,-29.6,15C-35.6,8.8,-41.4,0.2,-40.9,-8.1C-40.5,-16.4,-33.9,-24.5,-26.1,-31.1C-18.2,-37.7,-9.1,-42.8,0,-42.8C9.1,-42.8,18.2,-37.6,25.8,-31Z" width="100%" height="100%" transform="translate(50 50)" stroke-width="0" style="transition: all 0.3s ease 0s;"></path>
              </svg>