<!--?xml version="1.0" standalone="no"?-->
              <svg id="sw-js-blob-svg" viewBox="0 0 100 100" xmlns="http://www.w3.org/2000/svg" version="1.1">
                    <defs> 
                        <linearGradient id="sw-gradient" x1="0" x2="1" y1="1" y2="0">
                            <stop id="stop1" stop-color="rgba(117, 230, 218, 1)" offset="0%"></stop>
                            <stop id="stop2" stop-color="rgba(24, 154, 180, 1)" offset="100%"></stop>
                        </linearGradient>
                    </defs>
                <path fill="url(#sw-gradient)" d="M20.2,-25.3C26.6,-18.6,32.7,-12.7,36,-4.8C39.3,3.2,39.8,13.2,35.8,21.3C31.9,29.3,23.5,35.4,14.5,37.6C5.6,39.9,-3.9,38.3,-12,34.6C-20.1,30.9,-26.8,25.1,-31.6,17.7C-36.5,10.4,-39.6,1.4,-39.2,-8C-38.8,-17.4,-35,-27.3,-27.9,-33.8C-20.8,-40.3,-10.4,-43.5,-1.8,-41.4C6.9,-39.3,13.7,-31.9,20.2,-25.3Z" width="100%" height="100%" transform="translate(50 50)" stroke-width="0" style="transition: all 0.3s ease 0s;"></path>
              </svg>