<!--?xml version="1.0" standalone="no"?-->
              <svg id="sw-js-blob-svg" viewBox="0 0 100 100" xmlns="http://www.w3.org/2000/svg" version="1.1">
                    <defs> 
                        <linearGradient id="sw-gradient" x1="0" x2="1" y1="1" y2="0">
                            <stop id="stop1" stop-color="rgba(248, 117, 55, 1)" offset="0%"></stop>
                            <stop id="stop2" stop-color="rgba(155.647, 139.002, 111.528, 1)" offset="100%"></stop>
                        </linearGradient>
                    </defs>
                <path fill="url(#sw-gradient)" d="M25.9,-31C33.5,-24.5,39.4,-16.2,42,-6.7C44.5,2.9,43.6,13.8,38.7,22.5C33.9,31.2,25,37.8,15.7,39.7C6.4,41.6,-3.4,38.8,-12.8,35.3C-22.2,31.8,-31.4,27.6,-34.4,20.7C-37.4,13.7,-34.2,4.1,-31.7,-4.8C-29.1,-13.7,-27.2,-21.9,-22,-28.8C-16.8,-35.8,-8.4,-41.5,0.4,-41.9C9.2,-42.4,18.3,-37.5,25.9,-31Z" width="100%" height="100%" transform="translate(50 50)" stroke-width="0" style="transition: all 0.3s ease 0s;" stroke="url(#sw-gradient)"></path>
              </svg>